<?xml version="1.0" encoding="UTF-8" standalone="no"?>
<svg width="120px" height="120px" viewBox="0 0 120 120" version="1.1" xmlns="http://www.w3.org/2000/svg" xmlns:xlink="http://www.w3.org/1999/xlink" xmlns:sketch="http://www.bohemiancoding.com/sketch/ns">
    <!-- Generator: Sketch 3.3.2 (12043) - http://www.bohemiancoding.com/sketch -->
    <title>Oval 2</title>
    <desc>Created with Sketch.</desc>
    <defs>
        <circle id="path-1" cx="60" cy="60" r="60"></circle>
    </defs>
    <g id="Page-1" stroke="none" stroke-width="1" fill="none" fill-rule="evenodd" sketch:type="MSPage">
        <g id="Custom-Preset" sketch:type="MSArtboardGroup" transform="translate(-123.000000, -120.000000)">
            <g id="Oval-2" sketch:type="MSLayerGroup" transform="translate(123.000000, 120.000000)">
                <mask id="mask-2" sketch:name="Mask" fill="white">
                    <use xlink:href="#path-1"></use>
                </mask>
                <use id="Mask" sketch:type="MSShapeGroup" xlink:href="#path-1"></use>
                <path d="M20.4328379,106.300685 C7.242458,95.1389028 -1.13207547,78.4624565 -1.13207547,59.8300331 C-1.13207547,26.2240271 26.1109751,-1.01902347 59.7169811,-1.01902347 C93.3229871,-1.01902347 120.566038,26.2240271 120.566038,59.8300331 C120.566038,93.4360391 93.3229871,120.67909 59.7169811,120.67909 C59.4820932,120.67909 59.247516,120.677759 59.0132569,120.675104 L57.4923096,122.264151 L32.6814252,118.003643 L18.4060934,108.226566 C18.4060934,108.226566 19.1614489,107.508802 20.4328379,106.300685 L20.4328379,106.300685 Z M20.4328379,106.300685 C30.8667453,115.129923 44.3140195,120.50853 59.0132569,120.675104 L66.4204408,112.936268 C66.4204408,112.936268 77.6054214,103.124419 80.2570981,96.695843 C82.9087747,90.2672671 82.4932419,81.1509598 81.9156996,75.4843551 C81.3381573,69.8177504 79.4322583,64.1734941 77.7064547,60.8504624 C75.9806511,57.5274306 74.1594733,54.7777071 72.3623951,52.7915706 C70.9064621,51.1824687 67.541578,48.4598264 64.9495041,47.0282202 C62.3574303,45.5966139 56.6943083,45.1505281 53.9229535,42.7426934 C51.1515987,40.3348587 48.38958,37.099593 45.603576,34.3262134 C42.8175719,31.5528339 42.0497765,29.7688144 36.7163771,26.4074963 C31.3829778,23.0461782 26.1989378,25.1382952 22.6961851,26.4074963 C19.1934324,27.6766974 16.427286,30.7420759 16.6736374,32.1485888 C16.9199889,33.5551017 19.3471918,33.7315656 21.3826961,33.7315656 C23.4182005,33.7315656 25.3165638,33.8942703 27.0255586,34.5805941 C28.7345534,35.2669179 32.1986188,37.2160404 35.3717642,40.8528815 C38.5449096,44.4897225 39.9154379,50.3019139 41.6895068,52.7915709 C43.4635756,55.2812278 48.3081678,61.7485947 49.7402889,63.9141267 C51.1724101,66.0796587 52.6596884,68.4190701 52.7886204,71.747492 C52.9175524,75.075914 48.5048671,79.6256919 48.504868,79.6256912 C48.5048686,79.6256906 27.1870422,99.8826111 20.4328379,106.300685 L20.4328379,106.300685 Z M94.1575149,37.5274061 C97.19156,34.6981133 101.949451,34.8691557 104.771709,37.895657 C107.599722,40.9283292 107.440628,45.6729975 104.398654,48.5096836 L94.3723176,57.8593938 C91.3382725,60.6886867 86.5803814,60.5176442 83.7581232,57.4911429 C80.9301107,54.4584708 81.0892048,49.7138024 84.1311781,46.8771164 L94.1575149,37.5274061 Z M97.554044,58.4978354 C100.587922,55.6686985 105.345677,55.8398673 108.167936,58.8663686 C110.995948,61.8990407 110.836814,66.6437462 107.795183,69.4801128 L103.200702,73.7645361 C100.166824,76.593673 95.4090685,76.4225042 92.5868103,73.3960029 C89.7587978,70.3633308 89.9179317,65.6186253 92.9595625,62.7822587 L97.554044,58.4978354 Z M85.1034364,21.70331 C88.1360868,18.8753177 92.8928473,19.0474144 95.7151054,22.0739157 C98.543118,25.1065879 98.3798942,29.8551072 95.3445758,32.6855875 L84.1703446,43.1057266 C81.1376942,45.9337188 76.3809337,45.7616221 73.5586756,42.7351208 C70.730663,39.7024486 70.8938868,34.9539294 73.9292052,32.1234491 L85.1034364,21.70331 Z" fill="#FFFFFF" sketch:type="MSShapeGroup" mask="url(#mask-2)"></path>
            </g>
        </g>
    </g>
</svg>